# xmcd CD database file
#
# Track frame offsets:
#	150
#	2753
#	5168
#	16323
#	27258
#	39252
#	48842
#	56447
#	66138
#	74739
#	86287
#	98905
#	109926
#	123379
#	135860
#	152232
#	163662
#	174126
#	185128
#	195997
#	208008
#	217606
#	225216
#	234912
#	243522
#	255003
#	267622
#	278615
#	292110
#	304626
#	320924
#	332319
#
# Disc length: 4570 seconds
#
# Revision: 0
# Processed by: cddbd v1.5.2PL0 Copyright (c) Steve Scherf et al.
# Submitted via: CDex 1.51
#
DISCID=a911d820
DTITLE=Fernando Brandao - Brazilian and Afro Cuban Jazz Conception
DYEAR=2006
DGENRE=Jazz
TTITLE0=Tuning-Note A.
TTITLE1=Tuning-Note Bb.snd
TTITLE2=Samba Dance
TTITLE3=Funky Samba
TTITLE4=Lucas' Cha-Cha
TTITLE5=Afoxé Urbano
TTITLE6=Latin Tower
TTITLE7=Sanfona
TTITLE8=El Son Mayor
TTITLE9=Snobby
TTITLE10=Santa Cruz
TTITLE11=Bangu
TTITLE12=The Island
TTITLE13=Frog Samba
TTITLE14=Bolero for Lucia
TTITLE15=Rodrigo no Frevo
TTITLE16=Sad Solitude
TTITLE17=Samba Dance MMO
TTITLE18=Funky Samba MMO
TTITLE19=Lucas' Cha-Cha MMO
TTITLE20=Afoxé Urbano MMO
TTITLE21=Latin Tower MMO
TTITLE22=Sanfona MMO
TTITLE23=El Son Mayor MMO
TTITLE24=Snobby MMO
TTITLE25=Santa Cruz MMO
TTITLE26=Bangu MMO
TTITLE27=The Island MMO
TTITLE28=Frog Samba MMO
TTITLE29=Bolero for Lucia MMO
TTITLE30=Rodrigo no Frevo MMO
TTITLE31=Sad Solitude MMO
EXTD=YEAR: 2006
EXTT0=
EXTT1=
EXTT2=
EXTT3=
EXTT4=
EXTT5=
EXTT6=
EXTT7=
EXTT8=
EXTT9=
EXTT10=
EXTT11=
EXTT12=
EXTT13=
EXTT14=
EXTT15=
EXTT16=
EXTT17=
EXTT18=
EXTT19=
EXTT20=
EXTT21=
EXTT22=
EXTT23=
EXTT24=
EXTT25=
EXTT26=
EXTT27=
EXTT28=
EXTT29=
EXTT30=
EXTT31=
PLAYORDER=
